<?xml version="1.0" standalone="no"?>
<!DOCTYPE svg PUBLIC "-//W3C//DTD SVG 20010904//EN"
 "http://www.w3.org/TR/2001/REC-SVG-20010904/DTD/svg10.dtd">
<svg version="1.0" xmlns="http://www.w3.org/2000/svg"
 width="1280.000000pt" height="654.000000pt" viewBox="0 0 1280.000000 654.000000"
 preserveAspectRatio="xMidYMid meet">
<metadata>
Created by potrace 1.15, written by Peter Selinger 2001-2017
</metadata>
<g transform="translate(0.000000,654.000000) scale(0.100000,-0.100000)"
fill="#000000" stroke="none">
<path d="M9163 6432 c-46 -59 -94 -120 -108 -137 l-26 -30 6 52 c13 100 -21
117 -235 118 l-145 0 3 -26 c5 -46 -16 -53 -130 -41 -102 11 -103 11 -128 -13
-34 -33 -44 -32 -68 9 -30 50 -66 70 -129 70 -48 1 -58 -2 -79 -27 -21 -25
-38 -31 -112 -43 -169 -27 -195 -34 -228 -59 -43 -33 -54 -84 -29 -131 33 -61
80 -68 258 -38 164 29 187 25 187 -28 1 -42 23 -103 46 -129 14 -16 31 -19
104 -19 48 0 90 -3 93 -7 4 -3 -1 -15 -10 -25 -17 -19 -16 -22 12 -76 65 -124
100 -169 149 -187 72 -28 151 -3 241 76 27 24 38 28 53 20 15 -8 23 -6 37 9
14 15 22 17 37 9 27 -15 16 -25 -75 -70 -124 -62 -288 -156 -325 -187 l-34
-28 16 -39 c9 -22 24 -47 32 -56 8 -9 14 -20 12 -25 -4 -15 13 -54 23 -54 15
0 10 -14 -10 -27 -17 -11 -23 -5 -56 48 -52 85 -145 181 -230 238 -346 231
-953 242 -1570 27 -299 -104 -667 -295 -855 -443 -126 -100 -279 -297 -321
-415 -15 -45 -22 -47 -37 -13 -6 14 -24 28 -39 31 -15 4 -188 -1 -383 -11
-195 -11 -470 -19 -610 -19 -288 0 -299 1 -829 94 -694 122 -852 140 -1248
140 -414 0 -647 -21 -736 -66 -51 -26 -189 -174 -256 -274 -69 -103 -77 -139
-36 -166 14 -9 25 -19 25 -23 0 -4 -37 -18 -82 -31 -175 -50 -377 -146 -523
-249 -131 -92 -338 -305 -431 -446 -183 -275 -299 -565 -365 -909 -11 -59 -18
-110 -15 -113 2 -2 86 58 186 134 100 76 203 154 229 173 240 180 381 294 387
312 20 64 157 240 271 348 371 354 950 514 1458 403 107 -23 200 -51 311 -94
l101 -40 -52 -95 c-44 -79 -53 -103 -53 -145 0 -28 -5 -56 -11 -62 -6 -6 -11
-18 -11 -26 -1 -9 -11 -29 -24 -44 l-23 -29 -39 20 c-67 34 -245 90 -365 114
-101 20 -142 23 -354 23 -211 -1 -253 -3 -345 -23 -685 -149 -1214 -648 -1383
-1307 -45 -177 -52 -238 -51 -460 0 -187 3 -224 27 -336 153 -727 696 -1263
1427 -1411 99 -20 145 -23 335 -23 189 0 236 3 333 23 532 107 980 433 1239
900 58 106 121 259 151 367 l19 70 81 6 c65 5 97 14 169 47 170 79 267 64 523
-78 337 -188 419 -216 670 -230 200 -12 791 -27 1650 -41 762 -13 772 -13 924
52 198 84 405 278 501 469 68 135 376 908 424 1064 43 139 22 306 -58 467
l-38 75 157 502 c86 276 158 503 161 506 8 7 208 136 212 136 2 0 9 -17 15
-38 14 -46 46 -77 87 -85 23 -4 47 3 95 29 35 19 69 34 76 34 18 0 321 146
328 159 7 11 -43 117 -79 166 -48 66 -165 295 -165 325 0 39 18 56 154 146
107 70 115 77 139 131 48 110 62 207 32 237 -21 20 -94 28 -294 30 -94 0 -171
3 -171 6 0 3 64 86 141 185 212 272 229 294 222 311 -3 8 -79 71 -169 140
-157 121 -163 127 -149 147 8 12 15 24 15 28 0 9 -156 129 -167 129 -4 0 -45
-49 -90 -108z m-577 -2281 c-22 -22 -361 -259 -422 -294 -16 -9 4 73 22 92 13
15 402 228 418 230 6 1 -3 -12 -18 -28z m-26 -458 c-26 -65 -54 -119 -60 -121
-20 -7 -300 10 -300 17 0 7 387 219 402 220 4 1 -15 -52 -42 -116z m-5200 -21
c25 -19 66 -55 91 -79 62 -59 135 -76 222 -52 49 13 72 49 73 114 0 27 3 50 6
50 13 0 140 -110 185 -159 41 -45 82 -127 272 -532 406 -865 681 -1423 729
-1476 8 -10 11 -18 6 -18 -5 0 -115 57 -244 126 -267 143 -298 156 -395 174
-38 7 -82 19 -97 26 -15 8 -40 14 -56 14 -16 0 -49 11 -73 25 -110 63 -186 95
-220 95 -41 0 -49 13 -49 82 0 73 -41 271 -80 392 -102 314 -287 594 -531 802
-91 78 -104 101 -73 131 8 9 14 24 11 33 -2 9 4 22 14 29 11 6 19 19 19 29 0
31 120 243 133 236 7 -4 32 -23 57 -42z m3082 -388 c70 -3 134 -11 142 -18 14
-10 131 -325 124 -332 -2 -2 -62 5 -133 16 -118 17 -265 32 -415 43 -164 13
-320 -50 -483 -194 -26 -23 -50 -39 -53 -36 -3 3 5 112 17 242 20 199 26 235
39 233 9 -2 16 -16 18 -40 4 -50 28 -62 140 -77 l94 -12 41 37 c23 21 56 52
72 71 23 25 49 38 115 58 49 14 100 23 120 20 19 -2 92 -7 162 -11z m1806
-158 c74 -8 136 -17 139 -20 3 -3 -15 -89 -41 -190 -49 -198 -57 -279 -30
-294 21 -12 12 -69 -16 -105 -13 -16 -20 -40 -20 -66 0 -36 -3 -41 -27 -47
-16 -4 -74 -19 -131 -34 l-102 -28 -86 56 -86 56 4 265 c5 290 9 311 64 363
68 63 105 68 332 44z m-6228 -346 c0 -128 -3 -236 -5 -238 -2 -3 -34 -8 -70
-11 l-65 -7 0 248 0 249 71 -3 70 -3 -1 -235z m213 224 c49 -9 91 -22 93 -28
4 -9 -112 -464 -120 -473 -1 -1 -39 5 -84 14 l-82 16 0 244 0 243 53 0 c28 0
92 -7 140 -16z m-363 -242 l0 -249 -39 -11 c-21 -7 -45 -12 -52 -12 -8 0 -33
35 -56 78 -24 42 -76 135 -118 206 -41 70 -73 132 -70 136 14 22 249 98 308
99 l27 1 0 -248z m553 188 c46 -17 127 -79 127 -96 0 -3 -15 -2 -34 1 -28 6
-36 3 -45 -14 -9 -17 -8 -24 9 -41 27 -27 26 -28 -17 -32 -33 -3 -38 -7 -41
-30 -2 -14 -10 -32 -18 -38 -18 -16 -18 -44 1 -60 8 -7 15 -16 15 -20 0 -7
-85 -156 -94 -167 -1 -2 -26 7 -55 19 -47 20 -51 25 -46 48 41 173 122 450
132 450 7 0 37 -9 66 -20z m-787 -250 c62 -107 114 -202 114 -210 0 -9 -17
-24 -37 -35 -20 -11 -59 -37 -86 -58 -27 -21 -50 -37 -52 -35 -26 30 -235 413
-231 424 7 17 156 116 169 111 5 -1 60 -90 123 -197z m-300 53 c6 -10 62 -105
123 -212 l113 -194 -34 -31 -33 -31 -168 171 -169 171 71 72 c38 39 74 71 78
71 5 0 13 -8 19 -17z m1575 -175 l21 -29 -173 -174 c-95 -96 -179 -175 -186
-175 -7 0 -18 10 -24 23 -6 12 -27 41 -45 64 -39 48 -41 53 -15 53 30 0 70 38
98 93 31 62 39 69 76 61 31 -6 57 9 57 35 0 11 27 33 72 59 78 45 81 44 119
-10z m-1577 -137 l169 -169 -24 -39 c-13 -21 -27 -39 -31 -41 -4 -2 -8 -11 -8
-21 0 -38 -29 -61 -76 -61 -46 0 -381 85 -398 100 -9 9 39 159 60 188 10 14
32 4 175 -78 204 -117 238 -135 218 -118 -9 7 -98 60 -198 118 -132 76 -180
108 -176 119 9 22 108 171 115 171 3 0 81 -76 174 -169z m1668 -14 c24 -45 34
-75 28 -81 -5 -5 -101 -62 -212 -127 -182 -105 -204 -115 -216 -100 -38 48
-35 53 154 242 204 205 177 198 246 66z m56 -122 c15 -32 49 -166 57 -227 l7
-48 -64 0 c-36 0 -147 5 -249 11 -174 10 -204 17 -196 42 3 10 407 245 423
246 6 1 16 -10 22 -24z m-1933 -155 c83 -22 158 -43 169 -46 14 -5 -2 -17 -65
-51 l-84 -45 -105 2 c-58 0 -108 4 -111 8 -7 7 6 120 17 155 3 9 11 17 18 17
6 0 79 -18 161 -40z m24 -428 c14 -11 25 -25 24 -31 -2 -6 3 -11 10 -11 6 0
39 -13 72 -29 33 -16 70 -33 82 -38 20 -7 1 -20 -131 -95 -84 -49 -156 -88
-160 -88 -8 0 -46 76 -67 137 -14 40 -15 55 -6 58 7 3 48 14 92 26 44 11 84
24 88 29 5 4 -31 -3 -80 -16 -48 -13 -94 -24 -101 -24 -14 0 -25 26 -36 79
l-6 34 97 -6 c75 -4 102 -10 122 -25z m354 -179 c20 -30 37 -57 37 -61 0 -4
-70 -77 -155 -162 l-154 -154 -26 24 c-53 50 -164 214 -153 226 2 2 76 45 164
96 147 85 165 93 205 90 41 -4 47 -8 82 -59z m1402 -56 c50 -27 92 -52 94 -54
12 -10 -87 -173 -106 -173 -10 0 -118 60 -346 192 l-68 39 23 29 23 29 145 -6
145 -5 90 -51z m-226 -123 c111 -64 201 -120 201 -126 0 -15 -156 -166 -212
-205 l-46 -33 -75 128 c-41 70 -94 161 -117 201 l-43 75 43 38 c23 21 44 38
46 38 1 0 93 -52 203 -116z m-1098 90 c17 -15 17 -19 2 -47 -17 -33 -175 -305
-199 -345 l-15 -23 -25 20 c-14 11 -44 37 -66 57 l-41 36 159 159 c87 88 161
159 163 159 2 0 12 -7 22 -16z m60 -52 c18 -14 95 -58 137 -79 9 -4 -216 -393
-226 -393 -14 0 -167 95 -166 103 1 15 217 387 224 387 4 0 18 -8 31 -18z
m843 -185 c47 -82 95 -166 106 -188 l20 -39 -62 -31 -61 -31 -16 21 c-9 12
-60 98 -115 191 -54 94 -100 169 -103 167 -2 -2 32 -64 75 -138 43 -74 93
-160 111 -191 l32 -57 -38 -16 c-48 -21 -203 -61 -265 -70 l-48 -6 0 230 0
230 43 11 c69 18 121 39 168 68 52 34 34 51 153 -151z m-615 81 l51 -11 0
-223 c0 -123 -4 -225 -9 -228 -19 -12 -284 53 -334 81 -15 9 208 393 228 393
8 0 36 -5 64 -12z m241 -212 c0 -107 -3 -208 -6 -225 l-6 -31 -84 0 -84 0 0
225 0 224 83 3 c45 2 85 2 90 0 4 -2 7 -90 7 -196z"/>
<path d="M9524 4427 c-2 -7 83 -200 191 -429 107 -229 195 -422 195 -427 0
-19 -18 -12 -25 9 -3 11 -10 20 -14 20 -15 0 -216 -132 -296 -195 -310 -242
-541 -628 -639 -1068 -45 -203 -57 -313 -63 -568 -6 -257 2 -380 38 -609 29
-185 28 -184 89 -122 36 36 76 123 87 189 3 18 9 33 13 33 4 0 18 -26 30 -57
43 -110 151 -308 218 -402 77 -108 244 -287 347 -371 335 -274 771 -430 1203
-430 791 -1 1509 498 1785 1240 260 700 75 1500 -465 2016 -112 107 -213 185
-327 253 -46 28 -82 51 -79 51 3 0 36 -11 72 -25 60 -22 81 -25 204 -24 144 1
208 12 226 42 14 23 -2 35 -158 120 -224 122 -501 220 -736 261 -287 50 -648
24 -959 -70 -103 -32 -361 -131 -361 -139 0 -2 4 -15 10 -29 9 -23 5 -27 -65
-65 -41 -23 -78 -41 -83 -41 -4 0 -98 191 -207 425 -116 247 -205 425 -212
425 -8 0 -16 -6 -19 -13z m1381 -1469 c3 -68 5 -186 3 -263 l-3 -140 -66 -3
-66 -3 -17 41 c-17 44 -22 216 -10 388 8 102 2 97 105 101 l47 1 7 -122z m244
93 c72 -15 76 -18 73 -41 -5 -33 -121 -462 -127 -468 -2 -3 -42 1 -87 9 l-83
15 -3 237 c-1 154 1 245 8 258 10 18 17 19 77 13 37 -4 101 -14 142 -23z
m-419 -198 l0 -208 -23 40 c-13 22 -57 106 -100 187 l-77 148 58 15 c31 9 62
18 67 20 6 2 25 4 43 4 l32 1 0 -207z m663 115 c48 -23 87 -43 87 -44 0 -6
-252 -439 -259 -447 -10 -10 -81 24 -100 46 -9 12 -3 49 34 189 25 95 55 204
66 242 l21 68 31 -6 c18 -4 71 -25 120 -48z m184 -108 c76 -53 203 -169 203
-185 0 -6 -104 -69 -231 -142 -247 -141 -235 -137 -292 -91 l-29 23 129 222
c70 123 133 223 139 223 6 0 43 -22 81 -50z m-1263 -246 c65 -124 116 -227
113 -230 -2 -2 -61 94 -131 215 -113 195 -134 241 -108 241 4 0 61 -102 126
-226z m-22 -29 l127 -218 -38 -46 c-21 -25 -48 -63 -60 -83 -13 -21 -27 -38
-33 -38 -11 0 -405 225 -422 240 -12 12 102 200 122 200 4 0 88 -80 187 -177
l180 -178 -177 180 c-98 99 -178 185 -178 190 0 15 143 156 155 152 5 -2 67
-102 137 -222z m1537 33 l31 -42 -187 -188 c-103 -103 -190 -188 -193 -188 -3
0 -18 21 -35 48 -16 26 -49 68 -74 95 -24 26 -42 49 -40 51 2 2 74 44 159 93
85 50 187 108 225 131 39 22 73 41 77 41 3 1 20 -18 37 -41z m108 -172 c19
-37 32 -74 30 -81 -5 -12 -412 -252 -438 -257 -8 -2 -20 15 -29 40 l-15 44
189 186 189 186 20 -25 c10 -13 35 -55 54 -93z m-1876 -132 c112 -64 209 -121
215 -125 8 -7 7 -22 -5 -55 -19 -54 -15 -54 -191 -5 -63 17 -159 43 -212 57
-54 15 -98 30 -98 35 0 18 74 209 81 209 4 0 99 -52 210 -116z m1948 -37 c26
-76 51 -205 51 -258 l0 -39 -257 2 -257 3 -12 50 c-7 27 -11 51 -9 53 15 15
451 259 457 256 3 -2 16 -32 27 -67z m-1979 -146 c149 -40 214 -62 212 -71
-18 -81 -24 -176 -13 -245 6 -43 10 -80 8 -81 -8 -9 -460 -124 -465 -119 -11
11 -32 134 -39 223 l-6 92 64 1 c47 1 57 3 39 9 -14 4 -42 8 -64 9 l-39 1 7
63 c4 34 12 90 17 124 13 74 -22 74 279 -6z m2026 -196 c8 -31 0 -132 -10
-142 -4 -4 -115 -9 -247 -11 l-239 -4 0 91 0 91 245 0 245 0 6 -25z m-4 -205
c-9 -86 -88 -325 -107 -325 -15 0 -434 240 -435 248 0 5 7 33 16 63 l16 54
256 -2 257 -3 -3 -35z m-1790 -59 l16 -50 -203 -115 c-112 -64 -207 -116 -213
-116 -11 0 -69 132 -78 177 l-5 28 228 61 c125 34 231 62 234 63 3 1 12 -21
21 -48z m1463 -157 c99 -57 188 -109 198 -116 17 -12 15 -18 -30 -92 -26 -44
-55 -84 -64 -89 -12 -8 -61 15 -210 101 -260 149 -239 128 -196 188 19 27 44
68 56 92 20 39 23 41 44 31 12 -7 103 -58 202 -115z m-1390 18 c28 -42 51 -81
53 -87 1 -6 -72 -85 -164 -175 l-166 -165 -41 45 c-45 52 -147 200 -147 215 0
6 15 19 33 30 118 70 373 215 377 214 3 0 28 -35 55 -77z m1236 -199 c101 -58
196 -113 211 -122 16 -9 28 -20 28 -25 0 -16 -171 -178 -225 -214 -27 -18 -52
-29 -56 -25 -10 10 -194 324 -221 378 l-21 39 43 38 c23 21 46 38 50 38 4 0
90 -48 191 -107z m-1137 78 c17 -19 13 -27 -95 -213 -61 -106 -117 -199 -124
-206 -10 -11 -21 -6 -61 26 -27 22 -58 49 -68 61 l-20 22 164 164 c91 91 170
165 176 165 6 0 19 -9 28 -19z m91 -71 c32 -21 72 -45 88 -51 19 -8 27 -18 24
-28 -3 -12 -158 -279 -226 -390 -7 -12 -24 -6 -92 33 -46 27 -88 52 -92 56 -8
7 221 420 233 420 3 0 32 -18 65 -40z m808 -82 c110 -187 189 -329 186 -332
-2 -1 -24 -14 -49 -28 -89 -50 -75 -62 -204 160 -63 110 -116 205 -118 211 -3
9 105 80 124 81 4 0 31 -42 61 -92z m-590 -10 l47 -12 -2 -235 -3 -236 -24 -3
c-55 -8 -347 77 -339 98 2 5 55 99 118 209 99 174 118 201 135 196 11 -3 41
-11 68 -17z m482 -136 c49 -86 102 -181 118 -210 l29 -52 -45 -19 c-62 -27
-242 -71 -288 -71 l-39 0 0 239 0 238 53 15 c28 9 59 16 67 17 9 0 49 -59 105
-157z m-235 -119 l0 -243 -95 0 -95 0 0 238 c0 131 2 241 4 243 3 2 45 4 95 4
l91 0 0 -242z"/>
<path d="M10038 1933 c34 -2 88 -2 120 0 31 2 3 3 -63 3 -66 0 -92 -1 -57 -3z"/>
</g>
</svg>
